<?xml version="1.0" encoding="UTF-8"?>
<svg version="1.1" xmlns="http://www.w3.org/2000/svg" width="516" height="270">
<path d="M0 0 C0.72141637 -0.00453111 1.44283273 -0.00906223 2.1861102 -0.01373065 C4.59803121 -0.02636811 7.00972622 -0.02475471 9.42167664 -0.02310181 C11.15325714 -0.0290875 12.88483497 -0.03589314 14.6164093 -0.04345703 C19.31692797 -0.06112078 24.01737381 -0.06581259 28.71792245 -0.0670886 C31.65597239 -0.06851062 34.59400384 -0.0727812 37.53204918 -0.07808304 C47.78579763 -0.09658502 58.03949408 -0.1047535 68.29325867 -0.10317993 C77.84484428 -0.1019787 87.39620385 -0.12307702 96.94773227 -0.15466726 C105.15342117 -0.18083729 113.35903628 -0.19154691 121.56476659 -0.19026911 C126.46334637 -0.18975966 131.3617253 -0.19543331 136.26026344 -0.21662521 C140.86913699 -0.23601964 145.47761834 -0.23612385 150.08650589 -0.22159195 C151.77472826 -0.2195042 153.46297525 -0.22420275 155.15115547 -0.23631287 C172.78030332 -0.35454921 172.78030332 -0.35454921 180.30717468 6.66976929 C181.3532489 7.92467163 181.3532489 7.92467163 182.42045593 9.20492554 C183.17584656 10.08664429 183.93123718 10.96836304 184.70951843 11.87680054 C185.37725281 12.66570679 186.04498718 13.45461304 186.73295593 14.26742554 C188.89295135 16.53278658 191.02430977 18.69505748 193.45951843 20.66195679 C199.43481796 25.55408448 203.83473615 31.3519055 208.40776062 37.5027771 C210.61426946 40.44099484 212.89298684 43.32158738 215.17045593 46.20492554 C216.08853725 47.37020144 217.00650531 48.53556659 217.92436218 49.70101929 C218.38342957 50.2835144 218.84249695 50.86600952 219.31547546 51.46615601 C220.77910801 53.32607349 222.23893202 55.188925 223.69779968 57.05258179 C224.18514587 57.67463501 224.67249207 58.29668823 225.17460632 58.93759155 C226.09763577 60.11594374 227.02004805 61.29477974 227.94169617 62.47421265 C228.78855945 63.55433788 229.64430906 64.62756209 230.50932312 65.69320679 C231.71681534 67.24666046 232.79347622 68.89899521 233.86576843 70.54867554 C239.88047111 76.25199033 250.48232139 75.65063318 258.47758484 76.27304077 C259.48885941 76.35629608 260.50013397 76.43955139 261.54205322 76.52532959 C263.71667143 76.70383956 265.89148503 76.87998262 268.0664711 77.05395317 C271.51484281 77.33045538 274.96249248 77.61475741 278.41004944 77.90122986 C288.20492174 78.71403047 298.00071579 79.51520909 307.79740906 80.30575562 C313.80850514 80.79136933 319.8186225 81.28786955 325.82827377 81.79103279 C328.10917999 81.97978879 330.39043598 82.16436844 332.6720314 82.34460258 C335.86465862 82.59700891 339.05586623 82.86322677 342.24711609 83.13241577 C343.17930466 83.2026445 344.11149323 83.27287323 345.07192993 83.3452301 C354.95921229 84.20996773 363.09508902 86.53383418 369.73295593 94.26742554 C370.22795593 95.48430054 370.72295593 96.70117554 371.23295593 97.95492554 C373.11122077 102.10276038 374.68133227 102.45529813 378.67045593 104.19320679 C384.5751181 107.26855167 387.13582924 112.628761 389.05903625 118.71340942 C390.24289704 123.1999968 390.79396827 127.73639568 391.33842468 132.33773804 C391.46735611 133.37703461 391.59628754 134.41633118 391.72912598 135.48712158 C391.99825291 137.6766772 392.26271959 139.86681017 392.52275085 142.0574646 C392.91702589 145.3636629 393.33073048 148.66701086 393.74662781 151.97055054 C397.56085547 182.94856028 397.56085547 182.94856028 392.73295593 191.26742554 C391.11967468 193.09555054 391.11967468 193.09555054 389.42045593 194.51742554 C388.86744812 194.99695679 388.31444031 195.47648804 387.74467468 195.97055054 C382.76543262 199.18046969 377.70335314 199.54902631 371.92826843 199.46273804 C371.20428864 199.45990814 370.48030884 199.45707825 369.73439026 199.4541626 C367.44207103 199.44304641 365.1501553 199.41795865 362.85795593 199.39242554 C361.29546161 199.38238463 359.73296111 199.37326073 358.17045593 199.36508179 C354.35780256 199.34313526 350.54544745 199.30866567 346.73295593 199.26742554 C347.06295593 200.25742554 347.39295593 201.24742554 347.73295593 202.26742554 C348.69359383 214.40471587 346.06593694 224.48478057 338.73295593 234.26742554 C330.67621403 243.08045164 320.45293365 248.58039699 308.51029968 249.52133179 C296.84619733 249.91478899 286.64641805 247.03076351 277.73295593 239.26742554 C275.38418689 236.55856646 273.18435196 233.76709601 270.99076843 230.93148804 C268.84411811 228.39858922 266.79612534 226.6276501 264.10795593 224.70492554 C256.21387035 218.9186848 251.5950263 210.51137953 248.73295593 201.26742554 C248.73295593 200.60742554 248.73295593 199.94742554 248.73295593 199.26742554 C180.75295593 199.26742554 112.77295593 199.26742554 42.73295593 199.26742554 C43.06295593 200.58742554 43.39295593 201.90742554 43.73295593 203.26742554 C44.77985911 213.54767145 42.71074556 223.76269945 36.48295593 232.14242554 C35.26769099 233.54821931 34.01766543 234.92479881 32.73295593 236.26742554 C32.12451843 236.90422241 31.51608093 237.54101929 30.88920593 238.19711304 C23.06682286 245.6668477 12.46607134 250.18941176 1.63529968 250.29867554 C-11.81470651 249.66943548 -21.08265411 244.64418456 -30.53266907 235.26742554 C-32.21056724 233.33255197 -33.13151387 231.53848593 -34.26704407 229.26742554 C-35.66793698 228.33349693 -37.0717381 227.40347322 -38.49360657 226.50180054 C-47.94244673 219.92507479 -52.12946679 210.67700982 -56.26704407 200.26742554 C-57.12870178 200.28313599 -57.9903595 200.29884644 -58.87812805 200.31503296 C-62.11540959 200.36656333 -65.35248007 200.40396948 -68.59004211 200.43222046 C-69.98366735 200.44718491 -71.37724651 200.46756404 -72.77070618 200.4937439 C-90.66013926 200.82110704 -90.66013926 200.82110704 -97.64204407 195.43539429 C-100.89876462 191.46626611 -103.13299109 188.62954471 -103.26704407 183.26742554 C-104.09204407 183.24680054 -104.91704407 183.22617554 -105.76704407 183.20492554 C-111.04844336 181.79026501 -115.40032054 178.19887382 -118.35728455 173.55534363 C-119.55674876 170.53885871 -119.53624412 168.01986535 -119.55757141 164.77401733 C-119.57033112 163.45552292 -119.58309082 162.1370285 -119.59623718 160.77857971 C-119.5992952 159.3412694 -119.60152277 157.90395711 -119.60298157 156.46664429 C-119.60941199 154.98697278 -119.61614053 153.50730253 -119.62315369 152.02763367 C-119.63512165 148.92662613 -119.63883511 145.82572993 -119.63764954 142.72470093 C-119.63744659 138.76358481 -119.66472481 134.80318811 -119.69919395 130.84224224 C-119.72150568 127.78546412 -119.72548575 124.7288578 -119.72443008 121.67200661 C-119.72678054 120.21244647 -119.73557271 118.75288121 -119.75109482 117.29340172 C-119.8911404 102.76281673 -119.8911404 102.76281673 -115.26704407 97.26742554 C-110.49254324 92.78644011 -104.97306217 90.81333647 -98.82563782 88.85726929 C-97.49678307 88.41599449 -97.49678307 88.41599449 -96.14108276 87.96580505 C-93.33250962 87.03409983 -90.5192099 86.11804455 -87.70454407 85.20492554 C-84.88669935 84.28719044 -82.07029236 83.36582412 -79.2572937 82.43333435 C-77.51389604 81.85566059 -75.76769199 81.28636527 -74.01837158 80.72688293 C-59.27704851 75.85162755 -53.86363852 63.72755133 -46.22016907 51.11117554 C-42.82583503 45.52156836 -39.34130762 39.99070676 -35.83003235 34.47396851 C-33.21067485 30.35710847 -30.62296261 26.22556473 -28.08735657 22.05648804 C-27.56262756 21.20240356 -27.03789856 20.34831909 -26.49726868 19.46835327 C-25.50153703 17.84609385 -24.51468362 16.21833564 -23.53877258 14.58407593 C-17.67516984 5.09047622 -11.46576666 0.02978446 0 0 Z M18.32670593 57.83383179 C17.41334087 59.62092621 16.54544439 61.43226757 15.73295593 63.26742554 C14.8748679 64.61894143 13.99283133 65.95574579 13.08061218 67.27133179 C12.31680941 68.45618886 11.55502766 69.64235165 10.79545593 70.82992554 C10.39778015 71.44416382 10.00010437 72.0584021 9.59037781 72.69125366 C7.60323885 75.28532716 7.60323885 75.28532716 6.73295593 78.26742554 C24.55295593 78.26742554 42.37295593 78.26742554 60.73295593 78.26742554 C60.73295593 70.01742554 60.73295593 61.76742554 60.73295593 53.26742554 C55.44384329 53.03690731 50.17227523 52.8383726 44.88212585 52.71810913 C43.08627677 52.6679864 41.2908325 52.59986182 39.49638367 52.51303101 C27.48050233 51.40431585 27.48050233 51.40431585 18.32670593 57.83383179 Z M116.73295593 53.26742554 C116.73295593 61.51742554 116.73295593 69.76742554 116.73295593 78.26742554 C140.16295593 78.26742554 163.59295593 78.26742554 187.73295593 78.26742554 C187.73295593 77.93742554 187.73295593 77.60742554 187.73295593 77.26742554 C164.63295593 77.26742554 141.53295593 77.26742554 117.73295593 77.26742554 C118.73295593 76.26742554 118.73295593 76.26742554 121.35882568 76.14717102 C123.11421913 76.15050194 123.11421913 76.15050194 124.90507507 76.15390015 C125.54895676 76.15375412 126.19283844 76.15360809 126.85623169 76.15345764 C128.99355896 76.15415669 131.13080006 76.16194863 133.26811218 76.16976929 C134.74641879 76.1716335 136.22472601 76.17305739 137.70303345 76.17405701 C141.60094396 76.17788195 145.49881742 76.18771202 149.39671326 76.19876099 C153.37141926 76.20897562 157.34613122 76.21355474 161.32084656 76.21859741 C169.12489994 76.22933432 176.92892275 76.24641044 184.73295593 76.26742554 C184.73295593 71.93812232 182.16646724 69.66810371 179.54545593 66.45492554 C179.06270203 65.85099976 178.57994812 65.24707397 178.08256531 64.62484741 C176.64318638 62.82997087 175.19405962 61.04467579 173.73295593 59.26742554 C173.0929364 58.21643677 172.45291687 57.165448 171.79350281 56.08261108 C169.99754751 53.95082016 169.03655275 53.33205904 166.27877808 52.74494934 C163.12567786 52.57164091 160.02637449 52.59354892 156.86967468 52.68148804 C155.72255508 52.68997772 154.57543549 52.69846741 153.39355469 52.70721436 C149.73489401 52.74076247 146.07844882 52.81605224 142.42045593 52.89242554 C139.93806592 52.92252296 137.45564131 52.94989914 134.97319031 52.97445679 C128.89157512 53.03545594 122.81474056 53.15287501 116.73295593 53.26742554 Z " fill="#1F2937" transform="translate(119.26704406738281,-0.267425537109375)"/>
<path d="M0 0 C73.92 0 147.84 0 224 0 C223.67 5.61 223.34 11.22 223 17 C155.02 17 87.04 17 17 17 C17.495 18.98 17.495 18.98 18 21 C19.04690317 31.28024591 16.97778962 41.49527392 10.75 49.875 C9.53473506 51.28079377 8.28470949 52.65737328 7 54 C6.3915625 54.63679688 5.783125 55.27359375 5.15625 55.9296875 C-2.66613308 63.39942216 -13.26688459 67.92198623 -24.09765625 68.03125 C-37.59012965 67.40002317 -46.81433117 62.31249989 -56.36328125 53 C-58.04981486 50.93912838 -58.59928022 49.60177479 -59 47 C-58.44054687 47.2165625 -57.88109375 47.433125 -57.3046875 47.65625 C-45.32471032 51.81649931 -33.61989513 50.90787676 -22 46 C-12.32865088 41.08970083 -5.35336914 33.45938221 -1.69140625 23.26171875 C0.92379593 14.70690484 0 11.027556 0 0 Z " fill="#D6D6D6" transform="translate(145,182)"/>
<path d="M0 0 C6.87614029 1.93014464 11.22473834 4.82577461 15 11 C17.68604658 17.53533307 18.77947909 24.08965968 19.60546875 31.0703125 C19.73440018 32.10960907 19.8633316 33.14890564 19.99617004 34.21969604 C20.26529698 36.40925166 20.52976366 38.59938463 20.78979492 40.79003906 C21.18406996 44.09623737 21.59777455 47.39958533 22.01367188 50.703125 C25.82789954 81.68113474 25.82789954 81.68113474 21 90 C19.38671875 91.828125 19.38671875 91.828125 17.6875 93.25 C17.13449219 93.72953125 16.58148438 94.2090625 16.01171875 94.703125 C11.03247669 97.91304416 5.9703972 98.28160077 0.1953125 98.1953125 C-0.5286673 98.1924826 -1.25264709 98.18965271 -1.99856567 98.18673706 C-4.2908849 98.17562087 -6.58280063 98.15053312 -8.875 98.125 C-10.43749432 98.1149591 -11.99999482 98.10583519 -13.5625 98.09765625 C-17.37515338 98.07570973 -21.18750848 98.04124013 -25 98 C-24.67 98.99 -24.34 99.98 -24 101 C-23.0393621 113.13729034 -25.66701899 123.21735503 -33 133 C-41.0567419 141.8130261 -51.28002228 147.31297145 -63.22265625 148.25390625 C-74.90980059 148.64814072 -85.05099055 145.7449609 -94 138 C-96.86329988 134.80153124 -99.48031517 131.47400688 -102 128 C-101.01 127.505 -101.01 127.505 -100 127 C-98.824375 127.474375 -97.64875 127.94875 -96.4375 128.4375 C-85.7769899 132.12833683 -73.97456068 130.9986828 -63.8046875 126.484375 C-53.12447504 120.83189487 -46.7502619 113.48157104 -43 102 C-42.20321566 99.22059494 -41.88045702 96.77967298 -41.90234375 93.890625 C-41.90556641 93.13652344 -41.90878906 92.38242188 -41.91210938 91.60546875 C-41.92048828 90.82816406 -41.92886719 90.05085938 -41.9375 89.25 C-41.94201172 88.45722656 -41.94652344 87.66445312 -41.95117188 86.84765625 C-41.96291435 84.89840492 -41.98084854 82.94919262 -42 81 C-40.98164063 80.9906543 -39.96328125 80.98130859 -38.9140625 80.97167969 C-35.1042242 80.93154381 -31.29517355 80.86572237 -27.48583984 80.79248047 C-25.84303981 80.76440669 -24.20010811 80.74312505 -22.55712891 80.72900391 C-20.18324027 80.70738379 -17.81091208 80.6606424 -15.4375 80.609375 C-14.71320801 80.60814636 -13.98891602 80.60691772 -13.24267578 80.60565186 C-6.62148546 80.41916896 -1.22584529 78.34299504 3.375 73.5 C8.8469237 65.08165584 7.14659502 56.61733449 5.6875 47.0625 C4.0906097 36.0379998 2.84676229 24.98803704 1.6484375 13.9140625 C1.14576918 9.2691714 0.59752025 4.63360039 0 0 Z " fill="#D7D7D7" transform="translate(491,101)"/>
<path d="M0 0 C2.5901507 0.10044996 5.1806762 0.19168275 7.77148438 0.2734375 C14.08615572 0.49266558 20.3826728 0.83677714 26.6875 1.25 C26.6875 6.53 26.6875 11.81 26.6875 17.25 C24.09519531 17.09015625 21.50289063 16.9303125 18.83203125 16.765625 C1.61485332 15.34369346 1.61485332 15.34369346 -14.32373047 20.1796875 C-18.59829988 24.73333351 -21.21536378 29.99643407 -23.26806641 35.86230469 C-24.58780627 38.8793818 -25.96046704 40.93174164 -28.3125 43.25 C-31.15332031 43.81762695 -31.15332031 43.81762695 -34.390625 43.73828125 C-36.13085938 43.71411133 -36.13085938 43.71411133 -37.90625 43.68945312 C-39.71609375 43.62661133 -39.71609375 43.62661133 -41.5625 43.5625 C-42.78453125 43.53994141 -44.0065625 43.51738281 -45.265625 43.49414062 C-48.28248502 43.43521758 -51.29687515 43.35299265 -54.3125 43.25 C-53.15865447 40.21070515 -51.95487355 37.46189142 -50.16796875 34.74609375 C-49.76542877 34.13051102 -49.36288879 33.51492828 -48.94815063 32.88069153 C-47.999723 31.44431923 -47.03932774 30.01576124 -46.06584167 28.59625244 C-43.29724627 24.50876685 -40.8934427 20.50035392 -38.85986328 15.99731445 C-30.09763073 -2.11635501 -18.55336981 -1.25256812 0 0 Z " fill="#D7D7D7" transform="translate(153.3125,35.75)"/>
<path d="M0 0 C7.24142874 -0.27392407 14.46382055 -0.53390398 21.70594025 -0.67275238 C25.07862322 -0.74103511 28.44696401 -0.83196505 31.81713867 -0.98071289 C55.40730474 -1.9463411 55.40730474 -1.9463411 61.24365234 2.84619141 C64.93612231 6.72615034 67.30399134 10.91197401 69 16 C68 17 68 17 65.98155212 17.12025452 C65.09552811 17.11803391 64.20950409 17.11581329 63.29663086 17.11352539 C62.29566879 17.11344986 61.29470673 17.11337433 60.26341248 17.11329651 C59.1748848 17.10813522 58.08635712 17.10297394 56.96484375 17.09765625 C55.85645645 17.0962413 54.74806915 17.09482635 53.60609436 17.09336853 C50.04986931 17.08775033 46.49370617 17.07519475 42.9375 17.0625 C40.53320403 17.05748734 38.12890708 17.05292403 35.72460938 17.04882812 C29.81636294 17.0386239 23.90825115 17.01905205 18 17 C17.67 25.25 17.34 33.5 17 42 C11.39 42 5.78 42 0 42 C0 28.14 0 14.28 0 0 Z " fill="#D6D6D6" transform="translate(219,37)"/>
<path d="M0 0 C15.84 0 31.68 0 48 0 C48 5.28 48 10.56 48 16 C45.37307245 18.62692755 38.16512079 17.23022438 34.6015625 17.24023438 C32.53603154 17.24983257 30.47154247 17.28078726 28.40625 17.3125 C20.13656411 17.38100872 12.40173021 17.3954136 5.625 12.16796875 C5.08875 11.51441406 4.5525 10.86085937 4 10.1875 C3.443125 9.54167969 2.88625 8.89585937 2.3125 8.23046875 C1 6 1 6 0 0 Z " fill="#D8D8D8" transform="translate(16,183)"/>
<path d="M0 0 C8.19617684 4.79776206 13.50825251 12.50657303 19.125 20 C25.09597504 27.88887701 31.28400024 35.57853611 37.5546875 43.22998047 C40.73642417 47.12653298 43.86786176 51.06353624 47 55 C46.01 55.495 46.01 55.495 45 56 C38.10720719 51.95423031 33.99848506 46.10471799 29.34130859 39.796875 C27.13606268 36.84263221 24.84857722 33.95434906 22.5625 31.0625 C21.64311801 29.89461874 20.72384787 28.72664944 19.8046875 27.55859375 C18.38357428 25.75502656 16.96200225 23.95182292 15.54003906 22.14892578 C12.3516864 18.10575565 9.17096723 14.05682474 6 10 C5.33226562 9.14664062 4.66453125 8.29328125 3.9765625 7.4140625 C0 2.24266432 0 2.24266432 0 0 Z " fill="#D3D3D3" transform="translate(309,18)"/>
<path d="M0 0 C67.32 0 134.64 0 204 0 C204 0.33 204 0.66 204 1 C137.01 1 70.02 1 1 1 C0.67 1.66 0.34 2.32 0 3 C0 2.01 0 1.02 0 0 Z " fill="#D8D8D8" transform="translate(163,200)" fill="currentColor"/>
<path d="M0 0 C7.59 0 15.18 0 23 0 C23 7.59 23 15.18 23 23 C6.17 23 -10.66 23 -28 23 C-28 22.67 -28 22.34 -28 22 C-11.5 22 5 22 22 22 C22 15.07 22 8.14 22 1 C14.74 1 7.48 1 0 1 C0 0.67 0 0.34 0 0 Z " fill="#4B535D" transform="translate(156,54)"/>
<path d="M0 0 C3.96 0 7.92 0 12 0 C12 0.33 12 0.66 12 1 C8.04 1 4.08 1 0 1 C0 0.67 0 0.34 0 0 Z " fill="#D8D8D8" transform="translate(418,250)"/>
<path d="M0 0 C0.33 0 0.66 0 1 0 C1 3.3 1 6.6 1 10 C0.67 10 0.34 10 0 10 C0 6.7 0 3.4 0 0 Z " fill="#D8D8D8" transform="translate(468,203)"/>
<path d="M0 0 C2.97 0 5.94 0 9 0 C9 0.33 9 0.66 9 1 C6.03 1 3.06 1 0 1 C0 0.67 0 0.34 0 0 Z " fill="#1E2836" transform="translate(450,81)"/>
<path d="M0 0 C2.97 0 5.94 0 9 0 C9 0.33 9 0.66 9 1 C6.03 1 3.06 1 0 1 C0 0.67 0 0.34 0 0 Z " fill="#1E2836" transform="translate(438,80)"/>
<path d="M0 0 C2.97 0 5.94 0 9 0 C9 0.33 9 0.66 9 1 C6.03 1 3.06 1 0 1 C0 0.67 0 0.34 0 0 Z " fill="#1E2836" transform="translate(403,77)"/>
<path d="M0 0 C2.97 0 5.94 0 9 0 C9 0.33 9 0.66 9 1 C6.03 1 3.06 1 0 1 C0 0.67 0 0.34 0 0 Z " fill="#1F2836" transform="translate(379,75)"/>
<path d="M0 0 C2.64 0 5.28 0 8 0 C8 0.33 8 0.66 8 1 C5.36 1 2.72 1 0 1 C0 0.67 0 0.34 0 0 Z " fill="#1E2836" transform="translate(462,82)"/>
<path d="M0 0 C2.64 0 5.28 0 8 0 C8 0.33 8 0.66 8 1 C5.36 1 2.72 1 0 1 C0 0.67 0 0.34 0 0 Z " fill="#1E2836" transform="translate(427,79)"/>
<path d="M0 0 C2.64 0 5.28 0 8 0 C8 0.33 8 0.66 8 1 C5.36 1 2.72 1 0 1 C0 0.67 0 0.34 0 0 Z " fill="#1E2836" transform="translate(415,78)"/>
<path d="M0 0 C2.64 0 5.28 0 8 0 C8 0.33 8 0.66 8 1 C5.36 1 2.72 1 0 1 C0 0.67 0 0.34 0 0 Z " fill="#1E2836" transform="translate(392,76)"/>
<path d="M0 0 C2.64 0 5.28 0 8 0 C8 0.33 8 0.66 8 1 C5.36 1 2.72 1 0 1 C0 0.67 0 0.34 0 0 Z " fill="#1E2836" transform="translate(368,74)"/>
<path d="M0 0 C0.33 0 0.66 0 1 0 C1 2.31 1 4.62 1 7 C0.67 7 0.34 7 0 7 C0 4.69 0 2.38 0 0 Z " fill="#D8D8D8" transform="translate(164,205)"/>
<path d="M0 0 C0 0.99 0 1.98 0 3 C-0.99 3 -1.98 3 -3 3 C-2.01 2.01 -1.02 1.02 0 0 Z " fill="#1F2937" transform="translate(58,71)"/>
<path d="M0 0 C0.33 0 0.66 0 1 0 C1 1.98 1 3.96 1 6 C0.67 6 0.34 6 0 6 C0 4.02 0 2.04 0 0 Z " fill="#D8D8D8" transform="translate(515,164)"/>
<path d="M0 0 C0.33 0 0.66 0 1 0 C1 1.98 1 3.96 1 6 C0.67 6 0.34 6 0 6 C0 4.02 0 2.04 0 0 Z " fill="#D8D8D8" transform="translate(513,147)"/>
<path d="M0 0 C0.33 0 0.66 0 1 0 C1 1.98 1 3.96 1 6 C0.67 6 0.34 6 0 6 C0 4.02 0 2.04 0 0 Z " fill="#D8D8D8" transform="translate(512,139)"/>
<path d="M0 0 C0.33 0 0.66 0 1 0 C1 1.98 1 3.96 1 6 C0.67 6 0.34 6 0 6 C0 4.02 0 2.04 0 0 Z " fill="#D8D8D8" transform="translate(511,131)"/>
<path d="M0 0 C0.33 0 0.66 0 1 0 C1 1.98 1 3.96 1 6 C0.67 6 0.34 6 0 6 C0 4.02 0 2.04 0 0 Z " fill="#D8D8D8" transform="translate(510,123)"/>
<path d="M0 0 C1.98 0 3.96 0 6 0 C6 0.33 6 0.66 6 1 C4.02 1 2.04 1 0 1 C0 0.67 0 0.34 0 0 Z " fill="#1E2836" transform="translate(359,73)"/>
<path d="M0 0 C1.65 0 3.3 0 5 0 C5 0.33 5 0.66 5 1 C3.35 1 1.7 1 0 1 C0 0.67 0 0.34 0 0 Z " fill="#D8D8D8" transform="translate(111,250)"/>
<path d="M0 0 C0.33 0 0.66 0 1 0 C1 1.65 1 3.3 1 5 C0.67 5 0.34 5 0 5 C0 3.35 0 1.7 0 0 Z " fill="#D8D8D8" transform="translate(514,156)"/>
<path d="M0 0 C4 1 4 1 4 1 Z " fill="#D8D8D8" transform="translate(125,250)"/>
<path d="M0 0 C4 1 4 1 4 1 Z " fill="#D8D8D8" transform="translate(413,249)"/>
<path d="M0 0 C1 4 1 4 1 4 Z " fill="#D8D8D8" transform="translate(163,214)"/>
<path d="M0 0 C4 1 4 1 4 1 Z " fill="#D8D8D8" transform="translate(28,200)"/>
<path d="M0 0 C0.99 0 1.98 0 3 0 C2.67 0.66 2.34 1.32 2 2 C1.34 1.34 0.68 0.68 0 0 Z " fill="#636973" transform="translate(12,184)"/>
<path d="M0 0 C3 1 3 1 3 1 Z " fill="#D8D8D8" transform="translate(432,249)"/>
<path d="M0 0 C3 1 3 1 3 1 Z " fill="#D9D9D9" transform="translate(130,249)"/>
<path d="" fill="#D8D8D8" transform="translate(0,0)"/>
<path d="" fill="#1E2736" transform="translate(0,0)"/>
<path d="" fill="#1E2836" transform="translate(0,0)"/>
<path d="M0 0 C3 1 3 1 3 1 Z " fill="#D8D8D8" transform="translate(499,199)"/>
<path d="" fill="#D8D8D8" transform="translate(0,0)"/>
<path d="M0 0 C3 1 3 1 3 1 Z " fill="#1E2936" transform="translate(473,83)"/>
<path d="M0 0 C0.66 0.66 1.32 1.32 2 2 C1.34 2 0.68 2 0 2 C0 1.34 0 0.68 0 0 Z " fill="#6B7179" transform="translate(308,15)"/>
<path d="M0 0 C2 1 2 1 2 1 Z " fill="#D8D8D8" transform="translate(108,249)"/>
<path d="M0 0 C2 1 2 1 2 1 Z " fill="#D8D8D8" transform="translate(436,248)"/>
<path d="M0 0 C2 1 2 1 2 1 Z " fill="#D8D8D8" transform="translate(410,248)"/>
<path d="M0 0 C2 1 2 1 2 1 Z " fill="#D8D8D8" transform="translate(134,248)"/>
<path d="M0 0 C2 1 2 1 2 1 Z " fill="#D8D8D8" transform="translate(105,248)"/>
<path d="M0 0 C2 1 2 1 2 1 Z " fill="#D8D8D8" transform="translate(439,247)"/>
<path d="M0 0 C2 1 2 1 2 1 Z " fill="#D9D9D9" transform="translate(408,247)"/>
<path d="M0 0 C2 1 2 1 2 1 Z " fill="#D9D9D9" transform="translate(136,247)"/>
<path d="M0 0 C2 1 2 1 2 1 Z " fill="#D9D9D9" transform="translate(441,246)"/>
<path d="M0 0 C2 1 2 1 2 1 Z " fill="#D8D8D8" transform="translate(138,246)"/>
<path d="M0 0 C2 1 2 1 2 1 Z " fill="#D8D8D8" transform="translate(404,245)"/>
<path d="M0 0 C2 1 2 1 2 1 Z " fill="#D8D8D8" transform="translate(140,245)"/>
<path d="M0 0 C2 1 2 1 2 1 Z " fill="#D8D8D8" transform="translate(99,245)"/>
<path d="M0 0 C2 1 2 1 2 1 Z " fill="#D8D8D8" transform="translate(445,244)"/>
<path d="M0 0 C2 1 2 1 2 1 Z " fill="#D8D8D8" transform="translate(402,244)"/>
<path d="M0 0 C2 1 2 1 2 1 Z " fill="#D8D8D8" transform="translate(142,244)"/>
<path d="M0 0 C2 1 2 1 2 1 Z " fill="#D8D8D8" transform="translate(97,244)"/>
<path d="M0 0 C2 1 2 1 2 1 Z " fill="#D8D8D8" transform="translate(447,243)"/>
<path d="M0 0 C2 1 2 1 2 1 Z " fill="#D8D8D8" transform="translate(399,242)"/>
<path d="M0 0 C2 1 2 1 2 1 Z " fill="#D7D7D7" transform="translate(145,242)"/>
<path d="M0 0 C2 1 2 1 2 1 Z " fill="#D8D8D8" transform="translate(92,240)"/>
<path d="" fill="#D8D8D8" transform="translate(0,0)"/>
<path d="" fill="#D8D8D8" transform="translate(0,0)"/>
<path d="" fill="#D9D9D9" transform="translate(0,0)"/>
<path d="" fill="#D8D8D8" transform="translate(0,0)"/>
<path d="" fill="#D7D7D7" transform="translate(0,0)"/>
<path d="M0 0 C2 1 2 1 2 1 Z " fill="#3A424F" transform="translate(386,228)"/>
<path d="M0 0 C2 1 2 1 2 1 Z " fill="#202A38" transform="translate(81,228)"/>
<path d="" fill="#D7D7D7" transform="translate(0,0)"/>
<path d="" fill="#D8D8D8" transform="translate(0,0)"/>
<path d="M0 0 C2 1 2 1 2 1 Z " fill="#1F2836" transform="translate(76,224)"/>
<path d="" fill="#D8D8D8" transform="translate(0,0)"/>
<path d="" fill="#D8D8D8" transform="translate(0,0)"/>
<path d="" fill="#202836" transform="translate(0,0)"/>
<path d="" fill="#D7D7D7" transform="translate(0,0)"/>
<path d="" fill="#D8D8D8" transform="translate(0,0)"/>
<path d="" fill="#1E2836" transform="translate(0,0)"/>
<path d="" fill="#1E2837" transform="translate(0,0)"/>
<path d="" fill="#1F2936" transform="translate(0,0)"/>
<path d="" fill="#1F2836" transform="translate(0,0)"/>
<path d="" fill="#212937" transform="translate(0,0)"/>
<path d="" fill="#1E2836" transform="translate(0,0)"/>
<path d="" fill="#1F2937" transform="translate(0,0)"/>
<path d="" fill="#1D2735" transform="translate(0,0)"/>
<path d="" fill="#1E2836" transform="translate(0,0)"/>
<path d="M0 0 C2 1 2 1 2 1 Z " fill="#D8D8D8" transform="translate(467,200)"/>
<path d="M0 0 C2 1 2 1 2 1 Z " fill="#D8D8D8" transform="translate(26,199)"/>
<path d="M0 0 C2 1 2 1 2 1 Z " fill="#D8D8D8" transform="translate(503,198)"/>
<path d="M0 0 C2 1 2 1 2 1 Z " fill="#D9D9D9" transform="translate(24,198)"/>
<path d="M0 0 C2 1 2 1 2 1 Z " fill="#D8D8D8" transform="translate(505,197)"/>
<path d="" fill="#D8D8D8" transform="translate(0,0)"/>
<path d="" fill="#D8D8D8" transform="translate(0,0)"/>
<path d="" fill="#D8D8D8" transform="translate(0,0)"/>
<path d="M0 0 C2 1 2 1 2 1 Z " fill="#1E2937" transform="translate(10,183)"/>
<path d="M0 0 C2 1 2 1 2 1 Z " fill="#1E2836" transform="translate(8,182)"/>
<path d="" fill="#1E2736" transform="translate(0,0)"/>
<path d="" fill="#D8D8D8" transform="translate(0,0)"/>
<path d="" fill="#D8D8D8" transform="translate(0,0)"/>
<path d="M0 0 C2 1 2 1 2 1 Z " fill="#D7D7D7" transform="translate(497,102)"/>
<path d="M0 0 C2 1 2 1 2 1 Z " fill="#D7D7D7" transform="translate(495,101)"/>
<path d="M0 0 C2 1 2 1 2 1 Z " fill="#CDCDCE" transform="translate(493,100)"/>
<path d="" fill="#2E3744" transform="translate(0,0)"/>
<path d="" fill="#1F2936" transform="translate(0,0)"/>
<path d="" fill="#1F2836" transform="translate(0,0)"/>
<path d="M0 0 C2 1 2 1 2 1 Z " fill="#1F2836" transform="translate(9,91)"/>
<path d="M0 0 C2 1 2 1 2 1 Z " fill="#1E2936" transform="translate(12,90)"/>
<path d="M0 0 C2 1 2 1 2 1 Z " fill="#1E2836" transform="translate(15,89)"/>
<path d="M0 0 C2 1 2 1 2 1 Z " fill="#1E2836" transform="translate(18,88)"/>
<path d="M0 0 C2 1 2 1 2 1 Z " fill="#1E2837" transform="translate(21,87)"/>
<path d="M0 0 C2 1 2 1 2 1 Z " fill="#1E2836" transform="translate(481,86)"/>
<path d="M0 0 C2 1 2 1 2 1 Z " fill="#1E2837" transform="translate(24,86)"/>
<path d="M0 0 C2 1 2 1 2 1 Z " fill="#1F2936" transform="translate(479,85)"/>
<path d="M0 0 C2 1 2 1 2 1 Z " fill="#1F2936" transform="translate(27,85)"/>
<path d="M0 0 C2 1 2 1 2 1 Z " fill="#1E2836" transform="translate(477,84)"/>
<path d="M0 0 C2 1 2 1 2 1 Z " fill="#1E2836" transform="translate(30,84)"/>
<path d="M0 0 C2 1 2 1 2 1 Z " fill="#1E2836" transform="translate(33,83)"/>
<path d="M0 0 C2 1 2 1 2 1 Z " fill="#1D2837" transform="translate(36,82)"/>
<path d="M0 0 C2 1 2 1 2 1 Z " fill="#1F2736" transform="translate(39,81)"/>
<path d="M0 0 C2 1 2 1 2 1 Z " fill="#1F2936" transform="translate(42,80)"/>
<path d="M0 0 C2 1 2 1 2 1 Z " fill="#1E2836" transform="translate(45,79)"/>
<path d="M0 0 C2 1 2 1 2 1 Z " fill="#1E2836" transform="translate(48,78)"/>
<path d="M0 0 C2 1 2 1 2 1 Z " fill="#1E2736" transform="translate(50,77)"/>
<path d="M0 0 C2 1 2 1 2 1 Z " fill="#1E2837" transform="translate(52,76)"/>
<path d="M0 0 C2 1 2 1 2 1 Z " fill="#3B434F" transform="translate(356,72)"/>
<path d="" fill="#1E2837" transform="translate(0,0)"/>
<path d="" fill="#D8D8D8" transform="translate(0,0)"/>
<path d="" fill="#D7D7D7" transform="translate(0,0)"/>
<path d="" fill="#D8D8D8" transform="translate(0,0)"/>
<path d="" fill="#1E2937" transform="translate(0,0)"/>
<path d="" fill="#1F2836" transform="translate(0,0)"/>
<path d="" fill="#D5D5D5" transform="translate(0,0)"/>
<path d="" fill="#D8D8D8" transform="translate(0,0)"/>
<path d="" fill="#1E2937" transform="translate(0,0)"/>
<path d="" fill="#1E2836" transform="translate(0,0)"/>
<path d="" fill="#D8D8D8" transform="translate(0,0)"/>
<path d="" fill="#D7D7D7" transform="translate(0,0)"/>
<path d="" fill="#1F2836" transform="translate(0,0)"/>
<path d="" fill="#D6D6D6" transform="translate(0,0)"/>
<path d="" fill="#D7D7D7" transform="translate(0,0)"/>
<path d="" fill="#1E2836" transform="translate(0,0)"/>
<path d="" fill="#D7D7D7" transform="translate(0,0)"/>
<path d="" fill="#1F2836" transform="translate(0,0)"/>
<path d="" fill="#1E2936" transform="translate(0,0)"/>
<path d="" fill="#D8D8D8" transform="translate(0,0)"/>
<path d="" fill="#1E2836" transform="translate(0,0)"/>
<path d="" fill="#D8D8D8" transform="translate(0,0)"/>
<path d="" fill="#1E2937" transform="translate(0,0)"/>
<path d="" fill="#D6D6D6" transform="translate(0,0)"/>
<path d="" fill="#1E2836" transform="translate(0,0)"/>
<path d="" fill="#D8D8D8" transform="translate(0,0)"/>
<path d="" fill="#1E2936" transform="translate(0,0)"/>
<path d="" fill="#D8D8D8" transform="translate(0,0)"/>
<path d="" fill="#1E2836" transform="translate(0,0)"/>
<path d="" fill="#1D2836" transform="translate(0,0)"/>
<path d="" fill="#1D2836" transform="translate(0,0)"/>
<path d="" fill="#1D2736" transform="translate(0,0)"/>
<path d="" fill="#1E2837" transform="translate(0,0)"/>
<path d="M0 0 C2 1 2 1 2 1 Z " fill="#1E2836" transform="translate(292,0)"/>
<path d="M0 0 C2 1 2 1 2 1 Z " fill="#1E2736" transform="translate(107,0)"/>
<path d="" fill="#D7D7D7" transform="translate(0,0)"/>
<path d="" fill="#D8D8D8" transform="translate(0,0)"/>
<path d="" fill="#D8D8D8" transform="translate(0,0)"/>
<path d="" fill="#D8D8D8" transform="translate(0,0)"/>
<path d="" fill="#D7D7D7" transform="translate(0,0)"/>
<path d="" fill="#D8D8D8" transform="translate(0,0)"/>
<path d="" fill="#D9D9D9" transform="translate(0,0)"/>
<path d="" fill="#D9D9D9" transform="translate(0,0)"/>
<path d="" fill="#D8D8D8" transform="translate(0,0)"/>
<path d="" fill="#D9D9D9" transform="translate(0,0)"/>
<path d="" fill="#D9D9D9" transform="translate(0,0)"/>
<path d="" fill="#D8D8D8" transform="translate(0,0)"/>
<path d="" fill="#D8D8D8" transform="translate(0,0)"/>
<path d="" fill="#D8D8D8" transform="translate(0,0)"/>
<path d="" fill="#D8D8D8" transform="translate(0,0)"/>
<path d="" fill="#D7D7D7" transform="translate(0,0)"/>
<path d="" fill="#D9D9D9" transform="translate(0,0)"/>
<path d="" fill="#D9D9D9" transform="translate(0,0)"/>
<path d="" fill="#D8D8D8" transform="translate(0,0)"/>
<path d="" fill="#D9D9D9" transform="translate(0,0)"/>
<path d="" fill="#D8D8D8" transform="translate(0,0)"/>
<path d="" fill="#D8D8D8" transform="translate(0,0)"/>
<path d="" fill="#D8D8D8" transform="translate(0,0)"/>
<path d="" fill="#D9D9D9" transform="translate(0,0)"/>
<path d="" fill="#D8D8D8" transform="translate(0,0)"/>
<path d="" fill="#D9D9D9" transform="translate(0,0)"/>
<path d="" fill="#D7D7D7" transform="translate(0,0)"/>
<path d="" fill="#D8D8D8" transform="translate(0,0)"/>
<path d="" fill="#D9D9D9" transform="translate(0,0)"/>
<path d="" fill="#D8D8D8" transform="translate(0,0)"/>
<path d="" fill="#D8D8D8" transform="translate(0,0)"/>
<path d="" fill="#D8D8D8" transform="translate(0,0)"/>
<path d="" fill="#D9D9D9" transform="translate(0,0)"/>
<path d="" fill="#D8D8D8" transform="translate(0,0)"/>
<path d="" fill="#D8D8D8" transform="translate(0,0)"/>
<path d="" fill="#D9D9D9" transform="translate(0,0)"/>
<path d="" fill="#D9D9D9" transform="translate(0,0)"/>
<path d="" fill="#D8D8D8" transform="translate(0,0)"/>
<path d="" fill="#D8D8D8" transform="translate(0,0)"/>
<path d="" fill="#D8D8D8" transform="translate(0,0)"/>
<path d="" fill="#D8D8D8" transform="translate(0,0)"/>
<path d="" fill="#D8D8D8" transform="translate(0,0)"/>
<path d="" fill="#D9D9D9" transform="translate(0,0)"/>
<path d="" fill="#D8D8D8" transform="translate(0,0)"/>
<path d="" fill="#D8D8D8" transform="translate(0,0)"/>
<path d="" fill="#D8D8D8" transform="translate(0,0)"/>
<path d="" fill="#C8C9CA" transform="translate(0,0)"/>
<path d="" fill="#8B8F95" transform="translate(0,0)"/>
<path d="" fill="#525964" transform="translate(0,0)"/>
<path d="" fill="#1E2836" transform="translate(0,0)"/>
<path d="" fill="#D8D8D8" transform="translate(0,0)"/>
<path d="" fill="#1D2836" transform="translate(0,0)"/>
<path d="" fill="#1F2937" transform="translate(0,0)"/>
<path d="" fill="#1E2937" transform="translate(0,0)"/>
<path d="" fill="#1D2736" transform="translate(0,0)"/>
<path d="" fill="#D8D8D8" transform="translate(0,0)"/>
<path d="" fill="#1E2937" transform="translate(0,0)"/>
<path d="" fill="#1E2836" transform="translate(0,0)"/>
<path d="" fill="#1D2836" transform="translate(0,0)"/>
<path d="" fill="#1D2735" transform="translate(0,0)"/>
<path d="" fill="#1D2736" transform="translate(0,0)"/>
<path d="" fill="#1D2735" transform="translate(0,0)"/>
<path d="" fill="#1D2836" transform="translate(0,0)"/>
<path d="" fill="#1D2735" transform="translate(0,0)"/>
<path d="" fill="#1E2736" transform="translate(0,0)"/>
<path d="" fill="#212937" transform="translate(0,0)"/>
<path d="" fill="#1F2837" transform="translate(0,0)"/>
<path d="" fill="#1D2836" transform="translate(0,0)"/>
<path d="" fill="#1F2936" transform="translate(0,0)"/>
<path d="" fill="#1E2836" transform="translate(0,0)"/>
<path d="" fill="#1E2836" transform="translate(0,0)"/>
<path d="" fill="#1E2937" transform="translate(0,0)"/>
<path d="" fill="#202836" transform="translate(0,0)"/>
<path d="" fill="#747981" transform="translate(0,0)"/>
<path d="" fill="#D7D7D7" transform="translate(0,0)"/>
<path d="" fill="#D8D8D8" transform="translate(0,0)"/>
<path d="" fill="#D7D7D7" transform="translate(0,0)"/>
<path d="" fill="#D9D9D9" transform="translate(0,0)"/>
<path d="" fill="#D8D8D8" transform="translate(0,0)"/>
<path d="" fill="#D8D8D8" transform="translate(0,0)"/>
<path d="" fill="#D8D8D8" transform="translate(0,0)"/>
<path d="" fill="#D9D9D9" transform="translate(0,0)"/>
<path d="" fill="#D9D9D9" transform="translate(0,0)"/>
<path d="" fill="#D8D8D8" transform="translate(0,0)"/>
<path d="" fill="#D8D8D8" transform="translate(0,0)"/>
<path d="" fill="#D8D8D8" transform="translate(0,0)"/>
<path d="" fill="#D9D9D9" transform="translate(0,0)"/>
<path d="" fill="#D8D8D8" transform="translate(0,0)"/>
<path d="" fill="#1E2836" transform="translate(0,0)"/>
<path d="" fill="#1E2837" transform="translate(0,0)"/>
<path d="" fill="#1E2835" transform="translate(0,0)"/>
<path d="" fill="#1E2834" transform="translate(0,0)"/>
<path d="" fill="#1E2938" transform="translate(0,0)"/>
<path d="" fill="#1E2836" transform="translate(0,0)"/>
<path d="" fill="#D9D9D9" transform="translate(0,0)"/>
<path d="" fill="#D9D9D9" transform="translate(0,0)"/>
<path d="" fill="#D8D8D8" transform="translate(0,0)"/>
<path d="" fill="#D7D7D7" transform="translate(0,0)"/>
<path d="" fill="#D8D8D8" transform="translate(0,0)"/>
<path d="" fill="#D8D8D8" transform="translate(0,0)"/>
<path d="" fill="#D8D8D8" transform="translate(0,0)"/>
<path d="" fill="#D8D8D8" transform="translate(0,0)"/>
<path d="" fill="#1F2837" transform="translate(0,0)"/>
<path d="" fill="#1E2836" transform="translate(0,0)"/>
<path d="" fill="#1F2936" transform="translate(0,0)"/>
<path d="" fill="#1F2837" transform="translate(0,0)"/>
<path d="" fill="#1F2936" transform="translate(0,0)"/>
<path d="" fill="#1E2835" transform="translate(0,0)"/>
<path d="" fill="#1E2836" transform="translate(0,0)"/>
<path d="" fill="#1E2735" transform="translate(0,0)"/>
<path d="" fill="#1E2836" transform="translate(0,0)"/>
<path d="" fill="#1E2836" transform="translate(0,0)"/>
<path d="" fill="#1F2A36" transform="translate(0,0)"/>
<path d="" fill="#202936" transform="translate(0,0)"/>
<path d="" fill="#202937" transform="translate(0,0)"/>
<path d="" fill="#1F2937" transform="translate(0,0)"/>
<path d="" fill="#1E2836" transform="translate(0,0)"/>
<path d="" fill="#1F2836" transform="translate(0,0)"/>
<path d="" fill="#1F2A37" transform="translate(0,0)"/>
<path d="" fill="#D7D7D7" transform="translate(0,0)"/>
<path d="" fill="#1E2835" transform="translate(0,0)"/>
<path d="" fill="#D8D8D8" transform="translate(0,0)"/>
<path d="" fill="#1E2736" transform="translate(0,0)"/>
<path d="" fill="#C8C9CA" transform="translate(0,0)"/>
<path d="" fill="#D8D8D8" transform="translate(0,0)"/>
<path d="" fill="#DADADA" transform="translate(0,0)"/>
<path d="" fill="#1E2836" transform="translate(0,0)"/>
<path d="" fill="#202937" transform="translate(0,0)"/>
<path d="" fill="#1F2936" transform="translate(0,0)"/>
<path d="" fill="#1E2936" transform="translate(0,0)"/>
<path d="" fill="#D8D8D8" transform="translate(0,0)"/>
<path d="" fill="#D8D8D8" transform="translate(0,0)"/>
<path d="" fill="#1E2836" transform="translate(0,0)"/>
<path d="" fill="#1E2835" transform="translate(0,0)"/>
<path d="" fill="#D8D8D8" transform="translate(0,0)"/>
<path d="" fill="#D8D8D8" transform="translate(0,0)"/>
<path d="" fill="#D8D8D8" transform="translate(0,0)"/>
<path d="" fill="#202937" transform="translate(0,0)"/>
<path d="" fill="#1F2836" transform="translate(0,0)"/>
<path d="" fill="#1E2936" transform="translate(0,0)"/>
<path d="" fill="#D9D9D9" transform="translate(0,0)"/>
<path d="" fill="#1E2836" transform="translate(0,0)"/>
<path d="" fill="#D8D8D8" transform="translate(0,0)"/>
<path d="" fill="#D8D8D8" transform="translate(0,0)"/>
<path d="" fill="#1F2938" transform="translate(0,0)"/>
<path d="" fill="#1F2936" transform="translate(0,0)"/>
<path d="" fill="#D9D9D9" transform="translate(0,0)"/>
<path d="" fill="#1E2835" transform="translate(0,0)"/>
<path d="" fill="#D9D9D9" transform="translate(0,0)"/>
<path d="" fill="#1D2736" transform="translate(0,0)"/>
<path d="" fill="#D8D8D8" transform="translate(0,0)"/>
<path d="" fill="#1D2736" transform="translate(0,0)"/>
<path d="" fill="#D8D8D8" transform="translate(0,0)"/>
<path d="" fill="#D8D8D8" transform="translate(0,0)"/>
<path d="" fill="#1E2836" transform="translate(0,0)"/>
<path d="" fill="#2A3341" transform="translate(0,0)"/>
<path d="" fill="#000000" transform="translate(0,0)"/>
<path d="" fill="#D8D8D8" transform="translate(0,0)"/>
<path d="" fill="#D8D8D8" transform="translate(0,0)"/>
<path d="" fill="#1F2936" transform="translate(0,0)"/>
<path d="" fill="#D8D8D8" transform="translate(0,0)"/>
<path d="" fill="#D8D8D8" transform="translate(0,0)"/>
<path d="" fill="#1E2736" transform="translate(0,0)"/>
<path d="" fill="#D8D8D8" transform="translate(0,0)"/>
<path d="" fill="#1E2936" transform="translate(0,0)"/>
<path d="" fill="#D8D8D8" transform="translate(0,0)"/>
<path d="" fill="#1E2936" transform="translate(0,0)"/>
<path d="" fill="#D9D9D9" transform="translate(0,0)"/>
<path d="" fill="#D8D8D8" transform="translate(0,0)"/>
<path d="" fill="#1E2736" transform="translate(0,0)"/>
<path d="" fill="#D8D8D8" transform="translate(0,0)"/>
<path d="" fill="#1F2836" transform="translate(0,0)"/>
<path d="" fill="#D8D8D8" transform="translate(0,0)"/>
<path d="" fill="#D8D8D8" transform="translate(0,0)"/>
<path d="" fill="#D8D8D8" transform="translate(0,0)"/>
<path d="" fill="#1E2936" transform="translate(0,0)"/>
<path d="" fill="#1D2836" transform="translate(0,0)"/>
<path d="" fill="#D8D8D8" transform="translate(0,0)"/>
<path d="" fill="#D8D8D8" transform="translate(0,0)"/>
<path d="" fill="#1F2836" transform="translate(0,0)"/>
<path d="" fill="#D9D9D9" transform="translate(0,0)"/>
<path d="" fill="#D9D9D9" transform="translate(0,0)"/>
<path d="" fill="#1E2936" transform="translate(0,0)"/>
<path d="" fill="#D8D8D8" transform="translate(0,0)"/>
<path d="" fill="#1E2836" transform="translate(0,0)"/>
<path d="" fill="#D8D8D8" transform="translate(0,0)"/>
<path d="" fill="#D8D8D8" transform="translate(0,0)"/>
<path d="" fill="#1D2836" transform="translate(0,0)"/>
<path d="" fill="#D8D8D8" transform="translate(0,0)"/>
<path d="" fill="#D8D8D8" transform="translate(0,0)"/>
<path d="" fill="#D7D7D7" transform="translate(0,0)"/>
<path d="" fill="#1E2837" transform="translate(0,0)"/>
<path d="" fill="#D6D6D6" transform="translate(0,0)"/>
<path d="" fill="#D7D7D7" transform="translate(0,0)"/>
<path d="" fill="#1E2836" transform="translate(0,0)"/>
<path d="" fill="#D7D7D7" transform="translate(0,0)"/>
<path d="" fill="#E5E4E3" transform="translate(0,0)"/>
<path d="" fill="#1E2836" transform="translate(0,0)"/>
<path d="" fill="#1E2835" transform="translate(0,0)"/>
<path d="" fill="#1E2936" transform="translate(0,0)"/>
<path d="" fill="#1E2837" transform="translate(0,0)"/>
<path d="" fill="#1F2936" transform="translate(0,0)"/>
<path d="" fill="#1E2836" transform="translate(0,0)"/>
<path d="" fill="#1F2837" transform="translate(0,0)"/>
<path d="" fill="#1E2736" transform="translate(0,0)"/>
<path d="" fill="#1E2836" transform="translate(0,0)"/>
<path d="" fill="#1D2836" transform="translate(0,0)"/>
<path d="" fill="#1E2937" transform="translate(0,0)"/>
<path d="" fill="#1E2936" transform="translate(0,0)"/>
<path d="" fill="#1E2937" transform="translate(0,0)"/>
<path d="" fill="#202937" transform="translate(0,0)"/>
<path d="" fill="#1F2936" transform="translate(0,0)"/>
<path d="" fill="#202A37" transform="translate(0,0)"/>
<path d="" fill="#202937" transform="translate(0,0)"/>
<path d="" fill="#1F2A36" transform="translate(0,0)"/>
<path d="" fill="#1F2837" transform="translate(0,0)"/>
<path d="" fill="#1E2836" transform="translate(0,0)"/>
<path d="" fill="#1E2836" transform="translate(0,0)"/>
<path d="" fill="#1E2836" transform="translate(0,0)"/>
<path d="" fill="#202937" transform="translate(0,0)"/>
<path d="" fill="#1F2937" transform="translate(0,0)"/>
</svg>
